<mxfile host="app.diagrams.net" agent="Mozilla/5.0 (X11; Linux x86_64) AppleWebKit/537.36 (KHTML, like Gecko) Chrome/138.0.0.0 Safari/537.36" version="24.7.17">
  <diagram name="Strona-1" id="MeZ2PxEkXveU88RgSlnh">
    <mxGraphModel dx="2195" dy="1923" grid="1" gridSize="10" guides="1" tooltips="1" connect="1" arrows="1" fold="1" page="1" pageScale="1" pageWidth="827" pageHeight="1169" math="0" shadow="0">
      <root>
        <mxCell id="0" />
        <mxCell id="1" parent="0" />
        <mxCell id="ge5jJM079jcLyHk26CkE-2" value="" style="endArrow=classic;html=1;rounded=0;arcSize=50;jumpSize=12;endSize=13;" edge="1" parent="1">
          <mxGeometry width="50" height="50" relative="1" as="geometry">
            <mxPoint x="80" y="560" as="sourcePoint" />
            <mxPoint x="80" y="40" as="targetPoint" />
          </mxGeometry>
        </mxCell>
        <mxCell id="ge5jJM079jcLyHk26CkE-6" value="" style="endArrow=classic;html=1;rounded=0;arcSize=50;jumpSize=12;endSize=13;" edge="1" parent="1">
          <mxGeometry width="50" height="50" relative="1" as="geometry">
            <mxPoint x="50" y="520" as="sourcePoint" />
            <mxPoint x="790" y="520" as="targetPoint" />
          </mxGeometry>
        </mxCell>
        <mxCell id="ge5jJM079jcLyHk26CkE-10" value="" style="endArrow=none;html=1;rounded=0;strokeWidth=5;" edge="1" parent="1">
          <mxGeometry width="50" height="50" relative="1" as="geometry">
            <mxPoint x="80" y="520" as="sourcePoint" />
            <mxPoint x="770" y="130" as="targetPoint" />
            <Array as="points">
              <mxPoint x="210" y="290" />
              <mxPoint x="280" y="210" />
              <mxPoint x="340" y="170" />
              <mxPoint x="420" y="150" />
              <mxPoint x="560" y="140" />
            </Array>
          </mxGeometry>
        </mxCell>
        <mxCell id="ge5jJM079jcLyHk26CkE-11" value="Code flexibility [%]" style="text;html=1;fontSize=24;fontStyle=1;verticalAlign=middle;align=center;" vertex="1" parent="1">
          <mxGeometry x="30" y="-20" width="100" height="40" as="geometry" />
        </mxCell>
        <mxCell id="ge5jJM079jcLyHk26CkE-12" value="" style="endArrow=none;dashed=1;html=1;rounded=0;" edge="1" parent="1">
          <mxGeometry width="50" height="50" relative="1" as="geometry">
            <mxPoint x="80" y="80" as="sourcePoint" />
            <mxPoint x="770" y="80" as="targetPoint" />
          </mxGeometry>
        </mxCell>
        <mxCell id="ge5jJM079jcLyHk26CkE-13" value="Side project" style="text;html=1;fontSize=24;fontStyle=1;verticalAlign=middle;align=center;" vertex="1" parent="1">
          <mxGeometry x="-80" y="80" width="100" height="40" as="geometry" />
        </mxCell>
        <mxCell id="ge5jJM079jcLyHk26CkE-14" value="One time script" style="text;html=1;fontSize=24;fontStyle=1;verticalAlign=middle;align=center;" vertex="1" parent="1">
          <mxGeometry x="-80" y="460" width="100" height="40" as="geometry" />
        </mxCell>
        <mxCell id="ge5jJM079jcLyHk26CkE-15" value="Prototyping" style="text;html=1;fontSize=24;fontStyle=1;verticalAlign=middle;align=center;" vertex="1" parent="1">
          <mxGeometry x="-80" y="360" width="100" height="40" as="geometry" />
        </mxCell>
        <mxCell id="ge5jJM079jcLyHk26CkE-16" value="Stable scripts&amp;nbsp;" style="text;html=1;fontSize=24;fontStyle=1;verticalAlign=middle;align=center;" vertex="1" parent="1">
          <mxGeometry x="-80" y="270" width="100" height="40" as="geometry" />
        </mxCell>
        <mxCell id="ge5jJM079jcLyHk26CkE-17" value="Usual programs" style="text;html=1;fontSize=24;fontStyle=1;verticalAlign=middle;align=center;" vertex="1" parent="1">
          <mxGeometry x="-80" y="150" width="100" height="40" as="geometry" />
        </mxCell>
        <mxCell id="ge5jJM079jcLyHk26CkE-18" value="Effort [man-hour]" style="text;html=1;fontSize=24;fontStyle=1;verticalAlign=middle;align=center;" vertex="1" parent="1">
          <mxGeometry x="650" y="450" width="100" height="40" as="geometry" />
        </mxCell>
        <mxCell id="ge5jJM079jcLyHk26CkE-21" value="" style="endArrow=none;dashed=1;html=1;rounded=0;" edge="1" parent="1">
          <mxGeometry width="50" height="50" relative="1" as="geometry">
            <mxPoint x="80" y="170" as="sourcePoint" />
            <mxPoint x="340" y="170" as="targetPoint" />
          </mxGeometry>
        </mxCell>
        <mxCell id="ge5jJM079jcLyHk26CkE-22" value="" style="endArrow=none;dashed=1;html=1;rounded=0;" edge="1" parent="1">
          <mxGeometry width="50" height="50" relative="1" as="geometry">
            <mxPoint x="340" y="520" as="sourcePoint" />
            <mxPoint x="340" y="170" as="targetPoint" />
          </mxGeometry>
        </mxCell>
      </root>
    </mxGraphModel>
  </diagram>
</mxfile>
